<?xml version="1.0" encoding="utf-8"?>
<!-- Generator: Adobe Illustrator 26.0.2, SVG Export Plug-In . SVG Version: 6.00 Build 0)  -->
<svg version="1.1" id="Layer_1" xmlns="http://www.w3.org/2000/svg" xmlns:xlink="http://www.w3.org/1999/xlink" x="0px" y="0px"
	 viewBox="0 0 515.6 205.6" style="enable-background:new 0 0 515.6 205.6;" xml:space="preserve">
<style type="text/css">
	.st0{fill:#FFFFFF;stroke:#221F1F;stroke-miterlimit:10;}
</style>
<path d="M503.1,12.8V0.3H443L442.6,0H66l0,0.3h-3.5v37.5H46V0.3H0v108.5h6.3v63.5h0.4v33.3h96l0.1-15l12.4,0h35.2v-18.3h13.1v18.3
	H287v-11.4h1.8h9.6h1.8v11.4h79.6v15h108.5v-33.5h-12.5v-12.5h-12.5v-16.5h12.5v-12.5h12.5v-21.8h14.9V96.3h12.5V12.8H503.1z"/>
<g>
	<g>
		<path class="st0" d="M85.7,98.2H73.2V85.7H60.7V73.2H48.2v12.5H35.7v12.5H23.2H10.7V85.7V73.2V60.7V48.2V35.7V23.2V10.7h12.5h12.5
			v12.5v12.5v12.5v12.5h12.5V48.2h12.5v12.5h12.5V48.2V35.7V23.2V10.7h12.5h12.5v12.5v12.5v12.5v12.5v12.5v12.5v12.5H85.7z"/>
		<path class="st0" d="M122,90.2h-11.4V78.8V67.5V56.1V44.7V33.3V22V10.6H122h11.4V22v11.4v11.4v11.4v11.4v11.4v11.4H122z"/>
		<path class="st0" d="M213,90.2h-11.4h-11.4h-11.4h-11.4h-11.4h-11.4V78.8V67.5h11.4V56.1h11.4V44.7h11.4h11.4V33.3h-11.4h-11.4
			h-11.4h-11.4V22V10.6h11.4h11.4h11.4h11.4h11.4H213h11.4V22v11.4v11.4H213h-11.4v11.4h-11.4v11.4h11.4H213h11.4v11.4v11.4H213z"/>
		<path class="st0" d="M304,90.2h-11.4V78.8V67.5h-11.4h-11.4h-11.4v11.4v11.4h-11.4h-11.4V78.8V67.5V56.1V44.7V33.3V22h11.4V10.6
			h11.4h11.4h11.4h11.4H304V22h11.4v11.4v11.4v11.4v11.4v11.4v11.4H304z M281.3,44.7h11.4V33.3h-11.4h-11.4h-11.4v11.4h11.4H281.3z"
			/>
		<path class="st0" d="M395,90.2h-11.4V78.8V67.5h-11.4h-11.4h-11.4v11.4v11.4h-11.4h-11.4V78.8V67.5V56.1V44.7V33.3V22V10.6h11.4
			h11.4h11.4h11.4h11.4H395V22h11.4v11.4v11.4v11.4H395v11.4h11.4v11.4v11.4H395z M372.3,44.7h11.4V33.3h-11.4h-11.4h-11.4v11.4
			h11.4H372.3z"/>
		<path class="st0" d="M480.3,98.2h-12.5h-12.5h-12.5h-12.5h-12.5V85.7V73.2V60.7V48.2V35.7V23.2V10.7h12.5h12.5h12.5h12.5h12.5
			h12.5v12.5h12.5v12.5v12.5v12.5v12.5v12.5h-12.5v12.5H480.3z M467.8,73.2h12.5V60.7V48.2V35.7h-12.5h-12.5h-12.5v12.5v12.5v12.5
			h12.5H467.8z"/>
	</g>
	<g>
		<path class="st0" d="M79.9,195H67.4H54.9H42.4H29.9H17.4v-12.5V170h12.5h12.5h12.5h12.5h12.5v-12.5H67.4H54.9H42.4H29.9H17.4V145
			v-12.5V120h12.5v-12.5h12.5h12.5h12.5h12.5h12.5h12.5V120v12.5H92.4H79.9H67.4H54.9H42.4V145h12.5h12.5h12.5h12.5h12.5v12.5V170
			v12.5H92.4V195H79.9z"/>
		<path class="st0" d="M185.7,180h-11.4v-11.4v-11.4h-11.4h-11.4h-11.4v11.4V180h-11.4h-11.4v-11.4v-11.4v-11.4v-11.4v-11.4v-11.4
			v-11.4h11.4h11.4v11.4v11.4v11.4h11.4h11.4h11.4v-11.4v-11.4v-11.4h11.4H197v11.4v11.4v11.4v11.4v11.4v11.4V180H185.7z"/>
		<path class="st0" d="M265.3,180h-11.4h-11.4h-11.4h-11.4v-11.4h-11.4v-11.4v-11.4v-11.4v-11.4v-11.4h11.4v-11.4h11.4h11.4h11.4
			h11.4h11.4v11.4H288v11.4v11.4v11.4v11.4v11.4h-11.4V180H265.3z M253.9,157.3h11.4v-11.4v-11.4v-11.4h-11.4h-11.4h-11.4v11.4v11.4
			v11.4h11.4H253.9z"/>
		<path class="st0" d="M367.7,180h-11.4h-11.4h-11.4h-11.4h-11.4v-11.4h-11.4v-11.4v-11.4v-11.4v-11.4v-11.4h11.4v-11.4h11.4h11.4
			h11.4h11.4h11.4H379v11.4v11.4h-11.4h-11.4h-11.4h-11.4h-11.4v11.4v11.4v11.4h11.4h11.4h11.4h11.4H379v11.4V180H367.7z"/>
		<path class="st0" d="M465.4,195h-12.5h-12.5v-12.5h-12.5V170h-12.5v12.5V195h-12.5h-12.5v-12.5V170v-12.5V145v-12.5V120v-12.5
			h12.5h12.5V120v12.5h12.5V120h12.5v-12.5h12.5h12.5h12.5V120h-12.5v12.5h-12.5V145h-12.5v12.5h12.5V170h12.5v12.5h12.5V195H465.4z
			"/>
	</g>
</g>
</svg>
